<svg width="32" height="32" viewBox="0 0 32 32" fill="none" xmlns="http://www.w3.org/2000/svg">
<g clip-path="url(#clip0_2004_176)">
<circle cx="16" cy="16" r="16" fill="white"/>
<path d="M23.5833 12.5H22.695L20.8533 7.43C20.7009 7.01195 20.4239 6.6507 20.0597 6.395C19.6955 6.1393 19.2617 6.00143 18.8167 6H17.0833C16.4875 6 16 6.4875 16 7.08333C16 7.67917 16.4875 8.16667 17.0833 8.16667H18.8167L20.3983 12.5H15.1875L14.7975 11.4167H14.895C15.4908 11.4167 15.9783 10.9292 15.9783 10.3333C15.9783 9.7375 15.4908 9.25 14.895 9.25H11.6667C11.0708 9.25 10.5833 9.7375 10.5833 10.3333C10.5833 10.9292 11.0708 11.4167 11.6667 11.4167H12.4792L14.4508 16.8333H13.725C13.2483 14.4175 11.2225 12.63 8.6875 12.5108C5.65417 12.3592 3 14.8833 3 17.9167C3 20.95 5.38333 23.3333 8.41667 23.3333C11.0817 23.3333 13.2375 21.5025 13.725 19H18.275C18.7517 21.4158 20.7775 23.2033 23.3125 23.3225C26.3458 23.4633 29 20.95 29 17.9058C29 14.8833 26.6167 12.5 23.5833 12.5ZM9.5 19H11.4717C11.0167 20.3325 9.73833 21.2533 8.2 21.1558C6.58583 21.0583 5.2425 19.6933 5.16667 18.0683C5.09083 16.1725 6.5425 14.6667 8.41667 14.6667C9.8575 14.6667 11.0383 15.5658 11.4717 16.8333H9.5C8.90417 16.8333 8.41667 17.3208 8.41667 17.9167C8.41667 18.5125 8.90417 19 9.5 19ZM18.275 16.8333H16.7583L15.9675 14.6667H19.25C18.7733 15.295 18.4267 16.0208 18.275 16.8333ZM23.4533 21.1667C21.785 21.1017 20.3767 19.6825 20.3333 18.0033C20.3117 16.9633 20.7558 16.0533 21.4708 15.4467L22.1425 17.2883C22.3483 17.8517 22.9658 18.1442 23.5292 17.9383C24.0925 17.7325 24.385 17.115 24.1792 16.5517L23.4967 14.6775L23.5075 14.6667C23.9418 14.6519 24.3747 14.7252 24.7799 14.8823C25.1851 15.0394 25.5543 15.277 25.8651 15.5808C26.1759 15.8845 26.422 16.2481 26.5884 16.6496C26.7548 17.0511 26.8381 17.4821 26.8333 17.9167C26.8333 19.78 25.3383 21.2317 23.4533 21.1667Z" fill="url(#paint0_linear_2004_176)"/>
</g>
<defs>
<linearGradient id="paint0_linear_2004_176" x1="16.0599" y1="6" x2="16.0599" y2="23.3333" gradientUnits="userSpaceOnUse">
<stop stop-color="#FFB60D" stop-opacity="0.941176"/>
<stop offset="1" stop-color="#E59317"/>
</linearGradient>
<clipPath id="clip0_2004_176">
<rect width="32" height="32" fill="white"/>
</clipPath>
</defs>
</svg>
