<svg width="32" height="32" viewBox="0 0 32 32" fill="none" xmlns="http://www.w3.org/2000/svg">
<path d="M22.666 22.6533C20.866 22.6533 19.7327 23.2133 18.7327 23.72C17.866 24.16 17.1594 24.52 15.9994 24.52C14.7994 24.52 14.1327 24.1867 13.266 23.72C12.266 23.2133 11.1727 22.6533 9.33268 22.6533C7.49268 22.6533 6.39935 23.2133 5.39935 23.72C4.82602 24.0133 4.31935 24.2667 3.70602 24.4133C3.10602 24.5467 2.66602 25.0267 2.66602 25.6267V25.76C2.66602 26.56 3.41268 27.1333 4.18602 26.9733C5.17268 26.7733 5.91935 26.4 6.59935 26.0533C7.46602 25.6133 8.15935 25.2533 9.33268 25.2533C10.506 25.2533 11.1994 25.5867 12.066 26.0533C13.066 26.56 14.1594 27.12 15.9994 27.12C17.8394 27.12 18.9327 26.56 19.9327 26.0533C20.7994 25.6133 21.506 25.2533 22.666 25.2533C23.866 25.2533 24.5327 25.5867 25.3994 26.0533C26.0927 26.4 26.8394 26.7867 27.8394 26.9867C28.0195 27.0218 28.2051 27.017 28.3832 26.9725C28.5613 26.9281 28.7274 26.845 28.8698 26.7293C29.0122 26.6136 29.1275 26.4679 29.2075 26.3028C29.2875 26.1376 29.3302 25.9569 29.3327 25.7733V25.6533C29.3327 25.04 28.8794 24.56 28.2794 24.4267C27.666 24.2933 27.1727 24.04 26.5994 23.7333C25.5994 23.2133 24.466 22.6533 22.666 22.6533ZM22.666 16.72C20.866 16.72 19.7327 17.2933 18.7327 17.7867C17.866 18.2133 17.1594 18.5867 15.9994 18.5867C14.7994 18.5867 14.1327 18.2533 13.266 17.7867C12.266 17.28 11.1727 16.72 9.33268 16.72C7.49268 16.72 6.39935 17.2933 5.39935 17.7867C4.82602 18.0667 4.31935 18.3333 3.69268 18.48C3.10602 18.6133 2.66602 19.0933 2.66602 19.6933V19.8267C2.66609 20.011 2.70725 20.1929 2.78648 20.3593C2.86572 20.5257 2.98105 20.6723 3.12408 20.7885C3.26711 20.9048 3.43425 20.9876 3.61333 21.0311C3.79242 21.0746 3.97894 21.0777 4.15935 21.04C5.15935 20.84 5.90602 20.4533 6.59935 20.12C7.46602 19.6533 8.13268 19.32 9.33268 19.32C10.5327 19.32 11.1994 19.6533 12.066 20.12C13.066 20.6267 14.1594 21.1867 15.9994 21.1867C17.8394 21.1867 18.9327 20.6133 19.9327 20.12C20.7994 19.6533 21.466 19.32 22.666 19.32C23.866 19.32 24.5327 19.6533 25.3994 20.12C26.0927 20.4667 26.8394 20.8533 27.8394 21.0533C28.0206 21.0887 28.2074 21.0836 28.3864 21.0383C28.5654 20.9931 28.7322 20.9089 28.8749 20.7917C29.0176 20.6745 29.1326 20.5272 29.2117 20.3604C29.2909 20.1936 29.3322 20.0113 29.3327 19.8267V19.7067C29.3327 19.0933 28.8794 18.6133 28.2794 18.48C27.666 18.3467 27.1727 18.0933 26.5994 17.7867C25.5994 17.28 24.466 16.72 22.666 16.72ZM26.5994 5.94667C25.5994 5.44 24.4927 4.88 22.666 4.88C20.8394 4.88 19.7327 5.44 18.7327 5.94667C17.866 6.37334 17.1594 6.74667 15.9994 6.74667C14.7994 6.74667 14.1327 6.41334 13.266 5.94667C12.266 5.45334 11.1727 4.88 9.33268 4.88C7.49268 4.88 6.39935 5.44 5.39935 5.94667C4.82602 6.24 4.31935 6.49334 3.70602 6.64C3.10602 6.77334 2.66602 7.25334 2.66602 7.85334V7.94667C2.66602 8.74667 3.38602 9.33334 4.15935 9.17334C5.15935 8.97334 5.90602 8.58667 6.59935 8.25334C7.46602 7.81334 8.15935 7.45334 9.33268 7.45334C10.506 7.45334 11.1994 7.78667 12.066 8.25334C13.066 8.76 14.1594 9.32 15.9994 9.32C17.8394 9.32 18.9327 8.74667 19.9327 8.25334C20.7994 7.82667 21.506 7.45334 22.666 7.45334C23.866 7.45334 24.5327 7.78667 25.3994 8.25334C26.0927 8.6 26.8394 8.98667 27.8394 9.18667C28.0206 9.22203 28.2074 9.21691 28.3864 9.17168C28.5654 9.12644 28.7322 9.04222 28.8749 8.92502C29.0176 8.80782 29.1326 8.66054 29.2117 8.49372C29.2909 8.32689 29.3322 8.14465 29.3327 7.96V7.84C29.3327 7.22667 28.8794 6.74667 28.2794 6.61334C27.666 6.48 27.1727 6.24 26.5994 5.94667ZM22.666 10.7867C20.866 10.7867 19.7327 11.36 18.7327 11.8533C17.866 12.32 17.1994 12.6533 15.9994 12.6533C14.7994 12.6533 14.1327 12.32 13.266 11.8533C12.266 11.3467 11.1727 10.7867 9.33268 10.7867C7.49268 10.7867 6.39935 11.36 5.39935 11.8533C4.82602 12.16 4.33268 12.4133 3.71935 12.5467C3.11935 12.68 2.66602 13.16 2.66602 13.7733V13.8933C2.66609 14.0776 2.70725 14.2596 2.78648 14.426C2.86572 14.5924 2.98105 14.739 3.12408 14.8552C3.26711 14.9714 3.43425 15.0543 3.61333 15.0978C3.79242 15.1413 3.97894 15.1443 4.15935 15.1067C5.15935 14.9067 5.90602 14.52 6.59935 14.1867C7.46602 13.76 8.17268 13.3867 9.33268 13.3867C10.4927 13.3867 11.1994 13.72 12.066 14.1867C13.066 14.6933 14.1594 15.2533 15.9994 15.2533C17.8394 15.2533 18.9327 14.68 19.9327 14.1867C20.7994 13.76 21.506 13.3867 22.666 13.3867C23.866 13.3867 24.5327 13.72 25.3994 14.1867C26.0927 14.5333 26.8394 14.92 27.8394 15.12C28.0195 15.1552 28.2051 15.1503 28.3832 15.1059C28.5613 15.0614 28.7274 14.9783 28.8698 14.8626C29.0122 14.7469 29.1275 14.6013 29.2075 14.4361C29.2875 14.2709 29.3302 14.0902 29.3327 13.9067V13.7867C29.3327 13.1733 28.8794 12.6933 28.2794 12.56C27.666 12.4267 27.1727 12.1733 26.5994 11.8667C25.5994 11.3467 24.466 10.7867 22.666 10.7867Z" fill="url(#paint0_linear_102_377)"/>
<defs>
<linearGradient id="paint0_linear_102_377" x1="16.0608" y1="4.88" x2="16.0608" y2="27.12" gradientUnits="userSpaceOnUse">
<stop stop-color="#FFBF00"/>
<stop offset="1" stop-color="#F2A60C"/>
</linearGradient>
</defs>
</svg>
