<svg width="32" height="32" viewBox="0 0 32 32" fill="none" xmlns="http://www.w3.org/2000/svg">
<path d="M16.0007 10.6666C13.054 10.6666 10.6673 13.0533 10.6673 15.9999C10.6673 18.9466 13.054 21.3333 16.0007 21.3333C18.9473 21.3333 21.334 18.9466 21.334 15.9999C21.334 13.0533 18.9473 10.6666 16.0007 10.6666ZM27.9207 14.6666C27.6186 11.9627 26.4062 9.44197 24.4824 7.51818C22.5586 5.59438 20.0378 4.38193 17.334 4.07992V2.66659C17.334 1.93325 16.734 1.33325 16.0007 1.33325C15.2673 1.33325 14.6673 1.93325 14.6673 2.66659V4.07992C11.9635 4.38193 9.4427 5.59438 7.51891 7.51818C5.59512 9.44197 4.38267 11.9627 4.08065 14.6666H2.66732C1.93398 14.6666 1.33398 15.2666 1.33398 15.9999C1.33398 16.7333 1.93398 17.3333 2.66732 17.3333H4.08065C4.38267 20.0371 5.59512 22.5579 7.51891 24.4817C9.4427 26.4055 11.9635 27.6179 14.6673 27.9199V29.3333C14.6673 30.0666 15.2673 30.6666 16.0007 30.6666C16.734 30.6666 17.334 30.0666 17.334 29.3333V27.9199C20.0378 27.6179 22.5586 26.4055 24.4824 24.4817C26.4062 22.5579 27.6186 20.0371 27.9207 17.3333H29.334C30.0673 17.3333 30.6673 16.7333 30.6673 15.9999C30.6673 15.2666 30.0673 14.6666 29.334 14.6666H27.9207ZM16.0007 25.3333C10.8407 25.3333 6.66732 21.1599 6.66732 15.9999C6.66732 10.8399 10.8407 6.66658 16.0007 6.66658C21.1607 6.66658 25.334 10.8399 25.334 15.9999C25.334 21.1599 21.1607 25.3333 16.0007 25.3333Z" fill="url(#paint0_linear_102_403)"/>
<defs>
<linearGradient id="paint0_linear_102_403" x1="16.0682" y1="1.33325" x2="16.0682" y2="30.6666" gradientUnits="userSpaceOnUse">
<stop stop-color="#FFBF00"/>
<stop offset="1" stop-color="#F2A60C"/>
</linearGradient>
</defs>
</svg>
