<svg width="32" height="32" viewBox="0 0 32 32" fill="none" xmlns="http://www.w3.org/2000/svg">
<path d="M24.0007 10.6666H22.6673V7.99992C22.6673 4.31992 19.6806 1.33325 16.0007 1.33325C12.3207 1.33325 9.33398 4.31992 9.33398 7.99992V10.6666H8.00065C6.53398 10.6666 5.33398 11.8666 5.33398 13.3333V26.6666C5.33398 28.1333 6.53398 29.3333 8.00065 29.3333H24.0007C25.4673 29.3333 26.6673 28.1333 26.6673 26.6666V13.3333C26.6673 11.8666 25.4673 10.6666 24.0007 10.6666ZM16.0007 22.6666C14.534 22.6666 13.334 21.4666 13.334 19.9999C13.334 18.5333 14.534 17.3333 16.0007 17.3333C17.4673 17.3333 18.6673 18.5333 18.6673 19.9999C18.6673 21.4666 17.4673 22.6666 16.0007 22.6666ZM12.0007 10.6666V7.99992C12.0007 5.78659 13.7873 3.99992 16.0007 3.99992C18.214 3.99992 20.0007 5.78659 20.0007 7.99992V10.6666H12.0007Z" fill="url(#paint0_linear_102_406)"/>
<defs>
<linearGradient id="paint0_linear_102_406" x1="16.0498" y1="1.33325" x2="16.0498" y2="29.3333" gradientUnits="userSpaceOnUse">
<stop stop-color="#FFBF00"/>
<stop offset="1" stop-color="#F2A60C"/>
</linearGradient>
</defs>
</svg>
