<svg width="32" height="32" viewBox="0 0 32 32" fill="none" xmlns="http://www.w3.org/2000/svg">
<path d="M8.0675 10.7332C6.32187 12.4791 5.339 14.8455 5.334 17.3144C5.32901 19.7833 6.30229 22.1536 8.04083 23.9065C10.0008 19.3732 13.4942 15.5865 17.8542 13.3332C14.0909 16.5174 11.5506 20.91 10.6675 25.7599C14.1342 27.3999 18.4008 26.7999 21.2675 23.9332C25.2542 19.9465 26.3742 9.07988 26.6142 6.09321C26.6225 5.99831 26.61 5.90273 26.5774 5.8132C26.5449 5.72367 26.4931 5.64236 26.4257 5.575C26.3583 5.50764 26.277 5.45585 26.1875 5.42329C26.098 5.39073 26.0024 5.37819 25.9075 5.38655C22.9208 5.62655 12.0542 6.74655 8.0675 10.7332Z" fill="url(#paint0_linear_102_385)"/>
<defs>
<linearGradient id="paint0_linear_102_385" x1="16.0244" y1="5.38403" x2="16.0244" y2="26.6591" gradientUnits="userSpaceOnUse">
<stop stop-color="#FFBF00"/>
<stop offset="1" stop-color="#F2A60C"/>
</linearGradient>
</defs>
</svg>
