<svg width="136" height="31" viewBox="0 0 136 31" fill="none" xmlns="http://www.w3.org/2000/svg">
<path d="M5.13273 12.5243C5.79265 11.5049 6.69699 10.6766 7.84574 10.0395C9.01894 9.40233 10.351 9.08376 11.8419 9.08376C13.5773 9.08376 15.1415 9.52976 16.5347 10.4218C17.9523 11.3138 19.0644 12.5881 19.871 14.2446C20.702 15.8757 21.1175 17.7744 21.1175 19.9407C21.1175 22.107 20.702 24.0312 19.871 25.7133C19.0644 27.3699 17.9523 28.6569 16.5347 29.5744C15.1415 30.4919 13.5773 30.9506 11.8419 30.9506C10.3266 30.9506 8.9945 30.6448 7.84574 30.0331C6.72143 29.396 5.81709 28.5804 5.13273 27.5865V30.6066H0V2.31726H5.13273V12.5243ZM15.8748 19.9407C15.8748 18.6664 15.6182 17.5705 15.1049 16.6531C14.6161 15.7101 13.9561 14.9965 13.1251 14.5122C12.323 14.0292 11.4117 13.7785 10.4854 13.7859C9.55665 13.7859 8.67675 14.0408 7.84574 14.5505C7.03917 15.0347 6.37925 15.7483 5.86598 16.6913C5.37714 17.6343 5.13273 18.7429 5.13273 20.0172C5.13273 21.2915 5.37714 22.4001 5.86598 23.3431C6.37925 24.2861 7.03917 25.0124 7.84574 25.5221C8.67675 26.0064 9.55665 26.2485 10.4854 26.2485C11.4387 26.2485 12.3185 25.9936 13.1251 25.4839C13.9561 24.9742 14.6161 24.2478 15.1049 23.3049C15.6182 22.3619 15.8748 21.2405 15.8748 19.9407ZM27.4499 6.90472C26.5456 6.90472 25.7879 6.61163 25.1768 6.02545C24.5903 5.41379 24.297 4.66196 24.297 3.76995C24.297 2.87795 24.5903 2.13886 25.1768 1.55268C25.7879 0.941023 26.5456 0.635193 27.4499 0.635193C28.3543 0.635193 29.0997 0.941023 29.6863 1.55268C30.2974 2.13886 30.6029 2.87795 30.6029 3.76995C30.6029 4.66196 30.2974 5.41379 29.6863 6.02545C29.0997 6.61163 28.3543 6.90472 27.4499 6.90472ZM29.9796 9.42782V30.6066H24.8469V9.42782H29.9796ZM47.0765 30.6066L40.184 21.5846V30.6066H35.0512V2.31726H40.184V18.4116L47.0032 9.42782H53.6757L44.7301 20.0554L53.749 30.6066H47.0765ZM54.1228 20.0172C54.1228 17.8254 54.5505 15.914 55.406 14.2829C56.2614 12.6263 57.4468 11.352 58.9622 10.46C60.4776 9.5425 62.2129 9.08376 64.1683 9.08376C66.6858 9.08376 68.7633 9.74639 70.4009 11.0717C72.0629 12.3714 73.175 14.2064 73.7371 16.5766H68.2021C67.9089 15.6591 67.4078 14.9455 66.699 14.4358C66.0146 13.9006 65.1592 13.633 64.1326 13.633C62.6661 13.633 61.5052 14.1937 60.6497 15.3151C59.7943 16.4109 59.3665 17.9783 59.3665 20.0172C59.3665 22.0306 59.7943 23.598 60.6497 24.7193C61.5052 25.8152 62.6661 26.3632 64.1326 26.3632C66.2102 26.3632 67.5667 25.3947 68.2021 23.4578H73.7382C73.176 25.7515 72.0639 27.5737 70.4019 28.9245C68.7399 30.2753 66.6623 30.9506 64.1693 30.9506C62.214 30.9506 60.4786 30.5046 58.9632 29.6126C57.4599 28.7081 56.2283 27.3842 55.407 25.7897C54.5515 24.1332 54.1228 22.209 54.1228 20.0172ZM81.6124 12.7155C82.2418 11.6254 83.1244 10.7183 84.1788 10.0777C85.2542 9.44056 86.4763 9.12199 87.845 9.12199V14.7416H86.4885C84.8754 14.7416 83.6533 15.1366 82.8223 15.9267C82.0157 16.7168 81.6124 18.093 81.6124 20.0554V30.6066H76.4797V9.42782H81.6124V12.7155ZM103.583 27.5865C103.021 28.555 102.105 29.3705 100.834 30.0331C99.5627 30.6703 98.194 30.9889 96.7275 30.9889C95.4565 30.9889 94.3078 30.7213 93.2812 30.1861C92.2547 29.6508 91.4481 28.9118 90.8615 27.9688C90.2749 27.0258 89.9816 25.9427 89.9816 24.7193C89.9816 22.7569 90.6782 21.1513 92.0714 19.9025C93.489 18.6537 95.6032 18.0293 98.414 18.0293H103.583C103.534 16.6785 103.156 15.6081 102.447 14.8181C101.762 14.0025 100.809 13.5948 99.5872 13.5948C98.5117 13.5948 97.6196 13.9006 96.9108 14.5122C96.202 15.0984 95.7498 15.9267 95.5543 16.9971H90.4216C90.666 15.468 91.1915 14.1045 91.998 12.9066C92.8218 11.6897 93.9332 10.7152 95.2243 10.0777C96.5686 9.38959 98.0718 9.04553 99.7338 9.04553C101.445 9.04553 102.985 9.41507 104.353 10.1542C105.713 10.8602 106.846 11.9625 107.616 13.3272C108.398 14.7034 108.789 16.3217 108.789 18.1822V30.6066H103.583V27.5865ZM98.2307 26.669C99.0861 26.669 99.9171 26.4779 100.724 26.0956C101.555 25.7133 102.239 25.1399 102.777 24.3753C103.314 23.6107 103.583 22.7059 103.583 21.661V21.5081H98.7073C97.5341 21.5081 96.6542 21.7502 96.0676 22.2345C95.5054 22.7187 95.2243 23.3558 95.2243 24.1459C95.2243 24.9105 95.481 25.5221 95.9942 25.9809C96.532 26.4396 97.2774 26.669 98.2307 26.669ZM119.614 13.8241V30.6066H114.408V13.8241H112.098V9.42782H114.408V8.35741C114.408 5.75785 115.117 3.84641 116.534 2.62309C117.952 1.39977 120.091 0.826337 122.95 0.902795V5.41379C121.704 5.38831 120.836 5.60494 120.347 6.06368C119.858 6.52243 119.614 7.35072 119.614 8.54855V9.42782H126.284V4.19047H131.454V9.42782H136V13.8241H131.454V24.0694C131.454 24.783 131.613 25.3055 131.93 25.6368C132.273 25.9427 132.835 26.0956 133.617 26.0956H136V30.6066H132.774C128.448 30.6066 126.284 28.4148 126.284 24.0312V13.8241H119.614Z" fill="white"/>
</svg>
